<svg xmlns="http://www.w3.org/2000/svg" xmlns:xlink="http://www.w3.org/1999/xlink" version="1.1" width="1440pt" height="1440pt" viewBox="0 0 1440 1440">
<defs>
<clipPath id="clip_1">
<path transform="matrix(2,0,0,-2,0,1440)" d="M0 720H720V0H0Z"/>
</clipPath>
<path id="font_2_193" d="M.1928711 0 .013671875 .6933594H.14697266L.28857423 .115722659H.29736329L.43896485 .6933594H.5722656L.3930664 0H.1928711Z"/>
<path id="font_2_303" d="M.26123048 0V.48828126H.3930664V0H.26123048M.06982422 0V.12207031H.2709961V0H.06982422M.38330079 0V.12207031H.5463867V0H.38330079M.099121097 .3955078V.5175781H.3930664V.3955078H.099121097M.32128907 .58740237C.29622398 .58740237 .2758789 .59521487 .2602539 .61083987 .2446289 .62646487 .2368164 .6468099 .2368164 .671875 .2368164 .6969401 .2446289 .71728518 .2602539 .73291018 .2758789 .74853518 .29622398 .75634768 .32128907 .75634768 .34635417 .75634768 .36669923 .74853518 .38232423 .73291018 .39794923 .71728518 .40576173 .6969401 .40576173 .671875 .40576173 .6468099 .39794923 .62646487 .38232423 .61083987 .36669923 .59521487 .34635417 .58740237 .32128907 .58740237Z"/>
<path id="font_2_2013" d="M0 0Z"/>
<path id="font_2_1733" d="M.24316406 0V.6933594H.3720703V0H.24316406M.07470703 0V.11425781H.2529297V0H.07470703M.3623047 0V.11425781H.52197268V0H.3623047M.084472659 .51171877V.6347656L.24316406 .6933594V.5683594L.084472659 .51171877Z"/>
<path id="font_2_66" d="M.34277345-.009765625C.23665364-.009765625 .15698242 .020019532 .103759769 .079589847 .05053711 .13916016 .023925782 .22851563 .023925782 .34765626 .023925782 .46061198 .051432294 .5480957 .10644531 .6101074 .16145833 .67211917 .2389323 .703125 .3388672 .703125 .3893229 .703125 .43286134 .69523116 .46948243 .67944338 .5061035 .6636556 .53466799 .64127609 .5551758 .6123047L.4741211 .51904299C.45914714 .5382487 .4403483 .553304 .4177246 .564209 .39510093 .57511398 .37076823 .5805664 .34472657 .5805664 .2861328 .5805664 .24064128 .56070968 .20825196 .5209961 .17586263 .48128257 .15966797 .42513023 .15966797 .35253907 .15966797 .27278648 .17594402 .212972 .2084961 .1730957 .24104817 .1332194 .28971354 .11328125 .3544922 .11328125 .38541667 .11328125 .41267906 .11629232 .4362793 .12231445 .45987956 .1283366 .47916667 .13346355 .49414063 .13769531L.54052737 .01953125C.5262044 .0152994799 .50113937 .009358724 .46533204 .0017089844 .42952476-.0059407555 .38867188-.009765625 .34277345-.009765625M.41259767 .01953125V.35888673H.54052737V.01953125H.41259767M.29785157 .24023438V.35888673H.53759768V.24023438H.29785157Z"/>
<path id="font_2_382" d="M.27197267 .22265625 .24169922 .4008789H.2861328C.29134117 .4851888 .33544923 .52734377 .41845704 .52734377 .4676107 .52734377 .50528976 .50931808 .53149417 .4732666 .55769857 .43721519 .5708008 .3852539 .5708008 .3173828H.43896485C.43896485 .34780885 .4333496 .36965434 .42211915 .3829193 .41088868 .39619447 .39290367 .40283204 .36816407 .40283204 .3359375 .40283204 .31184898 .38720704 .29589845 .35595704 .2799479 .32470704 .27197267 .28027345 .27197267 .22265625M.030761719 0V.11328125H.3930664V0H.030761719M.14013672 0V.5175781H.2524414L.27197267 .36914063V0H.14013672M.05029297 .40429688V.5175781H.24560547L.2553711 .40429688H.05029297Z"/>
<path id="font_2_350" d="M.29296876-.009765625C.21842449-.009765625 .16064453 .013671875 .119628909 .060546876 .07861328 .107421878 .05810547 .17350261 .05810547 .25878907 .05810547 .34440104 .07861328 .41056315 .119628909 .4572754 .16064453 .5039876 .21842449 .52734377 .29296876 .52734377 .36751304 .52734377 .42529298 .5039876 .4663086 .4572754 .5073242 .41056315 .52783206 .34440104 .52783206 .25878907 .52783206 .17350261 .5073242 .107421878 .4663086 .060546876 .42529298 .013671875 .36751304-.009765625 .29296876-.009765625M.29296876 .115722659C.32486979 .115722659 .34944663 .12817383 .36669923 .15307617 .3839518 .17797852 .39257813 .21321614 .39257813 .25878907 .39257813 .3046875 .3839518 .3400065 .36669923 .3647461 .34944663 .3894857 .32486979 .40185548 .29296876 .40185548 .26139323 .40185548 .23689778 .3894857 .21948242 .3647461 .20206706 .3400065 .19335938 .3046875 .19335938 .25878907 .19335938 .21321614 .20206706 .17797852 .21948242 .15307617 .23689778 .12817383 .26139323 .115722659 .29296876 .115722659Z"/>
<path id="font_2_402" d="M.21777344-.009765625C.1686198-.009765625 .13053386 .0064290368 .103515628 .03881836 .0764974 .07120768 .06298828 .11686198 .06298828 .17578125V.5175781H.1953125V.2084961C.1953125 .1788737 .20206706 .15600586 .21557617 .13989258 .22908528 .1237793 .24772136 .115722659 .27148438 .115722659 .30240885 .115722659 .32576499 .12768555 .34155274 .15161133 .35734049 .17553711 .36523438 .21565755 .36523438 .27197267L.39160157 .099609378H.3515625C.34342448 .064453128 .32763673 .037434896 .30419923 .018554688 .28076173-.00032552085 .25195313-.009765625 .21777344-.009765625M.37402345-.0048828127 .36523438 .119140628V.20996094H.4975586V.11816406L.56884768 .107421878V0L.37402345-.0048828127M.36523438 .14648438V.5175781H.4975586V.17578125L.36523438 .14648438Z"/>
<path id="font_2_379" d="M.07373047-.22460938V.5175781H.19628906L.20605469 .40820313V-.22460938H.07373047M.34423829-.009765625C.30810548-.009765625 .27913413-.0011393229 .25732423 .016113282 .23551433 .033365888 .2220052 .059244794 .21679688 .09375H.17089844L.20605469 .25830079C.20605469 .20817058 .21354167 .17171224 .22851563 .14892578 .24348958 .12613933 .269694 .114746097 .3071289 .114746097 .34163413 .114746097 .36775718 .12679036 .38549806 .1508789 .40323893 .17496746 .41210938 .21077474 .41210938 .25830079 .41210938 .30419923 .40299479 .33976237 .38476563 .36499024 .36653648 .3902181 .34065757 .40283204 .3071289 .40283204 .27360026 .40283204 .24837239 .39127604 .23144531 .36816407 .21451824 .3450521 .20605469 .308431 .20605469 .25830079L.17578125 .42382813H.21386719C.22005208 .45865885 .23331706 .48461915 .2536621 .501709 .27400718 .5187988 .3038737 .52734377 .34326173 .52734377 .40804038 .52734377 .45825196 .50390627 .49389649 .45703126 .529541 .41015626 .5473633 .34391276 .5473633 .25830079 .5473633 .17203777 .529541 .10579427 .49389649 .059570314 .45825196 .0133463549 .40836589-.009765625 .34423829-.009765625Z"/>
<path id="font_2_120" d="M.29296876-.009765625C.11686198-.009765625 .028808594 .107421878 .028808594 .34179688 .028808594 .5826823 .11686198 .703125 .29296876 .703125 .46907554 .703125 .5571289 .5826823 .5571289 .34179688 .5571289 .107421878 .46907554-.009765625 .29296876-.009765625M.29296876 .11328125C.37890626 .11328125 .421875 .18945313 .421875 .34179688 .421875 .50065109 .37890626 .5800781 .29296876 .5800781 .20703125 .5800781 .1640625 .50065109 .1640625 .34179688 .1640625 .18945313 .20703125 .11328125 .29296876 .11328125Z"/>
<path id="font_2_287" d="M.1821289 0V.4736328C.1821289 .65266928 .2685547 .7421875 .44140626 .7421875 .4814453 .7421875 .52001956 .7389323 .5571289 .7324219L.5444336 .6098633C.5226237 .61246749 .5033366 .6142578 .48657228 .6152344 .46980796 .61621096 .45377604 .6166992 .43847657 .6166992 .35546876 .6166992 .31396485 .570638 .31396485 .47851563V0H.1821289M.024902344 .3017578V.41503907H.52001956V.3017578H.024902344Z"/>
<path id="font_2_30" d="M.36523438-.009765625C.14420574-.009765625 .033691408 .109375 .033691408 .34765626 .033691408 .46061198 .061523439 .5480957 .1171875 .6101074 .17285156 .67211917 .2516276 .703125 .35351563 .703125 .39941407 .703125 .44010417 .6957194 .47558595 .6809082 .5110677 .666097 .53792318 .64501956 .55615237 .6176758L.48388673 .5229492C.46923829 .5411784 .4506022 .55525717 .42797853 .56518557 .40535484 .57511398 .38085938 .5800781 .3544922 .5800781 .2985026 .5800781 .2536621 .56030276 .2199707 .52075198 .1862793 .48120118 .1694336 .42513023 .1694336 .35253907 .1694336 .19303386 .24023438 .11328125 .38183595 .11328125 .42903648 .11328125 .47558595 .123046878 .5214844 .14257813L.5439453 .0234375C.4873047 .0013020834 .42773438-.009765625 .36523438-.009765625Z"/>
<path id="font_2_340" d="M.40966798 0V.35058595C.40966798 .38639323 .3992513 .40429688 .37841798 .40429688 .35498048 .40429688 .34326173 .38492839 .34326173 .3461914L.30810548 .453125H.35205079C.35498048 .47623698 .36401368 .49438478 .3791504 .50756838 .3942871 .52075198 .41422526 .52734377 .43896485 .52734377 .47379557 .52734377 .49926759 .5177409 .51538088 .49853517 .53149417 .47932945 .5395508 .4482422 .5395508 .40527345V0H.40966798M.04638672 0V.5175781H.16503906L.17675781 .40820313V0H.04638672M.24511719 0V.36035157C.24511719 .38964845 .23470052 .40429688 .21386719 .40429688 .18912761 .40429688 .17675781 .38492839 .17675781 .3461914L.14648438 .453125H.18359375C.1907552 .5026042 .21695964 .52734377 .26220704 .52734377 .28727214 .52734377 .30704753 .5180664 .3215332 .49951173 .3360189 .48095704 .34326173 .45279948 .34326173 .41503907V0H.24511719Z"/>
<path id="font_2_225" d="M.3881836-.0048828127 .37695313 .14988709 .375 .21818543V.32061769C.375 .34866334 .36319987 .36920167 .3395996 .38223268 .31599937 .39526368 .28092448 .4024404 .234375 .40376283L.10205078 .40722657 .111816409 .52734377 .22460938 .52586367C.31835938 .5245412 .38802085 .5058441 .43359376 .46977235 .47916667 .43370057 .5019531 .3810679 .5019531 .3118744V.11816406L.57373049 .107421878V0L.3881836-.0048828127M.21289063-.009765625C.15787761-.009765625 .11507162 .0038655599 .084472659 .03112793 .0538737 .05840047 .03857422 .09716797 .03857422 .14743042 .03857422 .2059021 .05859375 .25074259 .09863281 .2819519 .13867188 .31316123 .19547527 .32876588 .26904298 .32876588 .29736329 .32876588 .32185874 .32730104 .3425293 .32437135 .36319987 .32144166 .3841146 .31688438 .40527345 .31069947L.38378907 .20767212C.36295573 .21255493 .34423829 .21540325 .32763673 .21621704 .31103517 .21703084 .29361979 .21743775 .27539063 .21743775 .20703125 .21743775 .17285156 .19737244 .17285156 .15724182 .17285156 .13918559 .17903646 .12539165 .19140625 .115859989 .20377605 .10632833 .22184246 .1015625 .24560547 .1015625 .2742513 .1015625 .2981771 .10702006 .3173828 .11793518 .33658854 .12886048 .35099284 .14275615 .3605957 .15962219 .37019859 .17649842 .375 .193868 .375 .21173096V.24449158L.3935547 .11047363H.35205079L.36914063 .12623596C.36816407 .09601339 .36132813 .07080078 .3486328 .050598146 .3359375 .030395508 .31811524 .015284221 .29516603 .005264282 .2722168-.004755656 .24479167-.009765625 .21289063-.009765625Z"/>
<path id="font_2_341" d="M.3798828 0V.30419923C.3798828 .33544923 .37345378 .35953776 .3605957 .37646485 .34773765 .39339195 .3294271 .40185548 .30566407 .40185548 .23925781 .40185548 .20605469 .3540039 .20605469 .25830079L.17578125 .42382813H.21875C.22363281 .45865885 .23551433 .48461915 .25439454 .501709 .27327476 .5187988 .30192057 .52734377 .34033204 .52734377 .39501954 .52734377 .43733726 .5107422 .46728517 .47753907 .49723307 .44433595 .51220706 .39746095 .51220706 .33691407V0H.3798828M.07373047 0V.5175781H.19189453L.20605469 .40820313V0H.07373047Z"/>
<path id="font_2_264" d="M.33398438-.009765625C.24446614-.009765625 .17529297 .013427734 .12646485 .059814454 .07763672 .10620117 .053222658 .17285156 .053222658 .25976563 .053222658 .34440104 .07397461 .41015626 .115478519 .45703126 .15698242 .50390627 .2154948 .52734377 .29101563 .52734377 .36490885 .52734377 .42203776 .5057271 .46240235 .4624939 .5027669 .41927085 .5229492 .35637919 .5229492 .27381898 .5229492 .25042216 .52197268 .22815959 .52001956 .20703125H.14013672V.29882813H.3930664C.3930664 .33350627 .38419596 .3600769 .36645509 .37854005 .3487142 .39701335 .32389323 .40625 .2919922 .40625 .25748698 .40625 .23071289 .39396159 .21166992 .36938478 .19262696 .34480796 .18310547 .30989585 .18310547 .26464845 .18310547 .21582031 .19718425 .17871094 .2253418 .15332031 .25349937 .12792969 .29361979 .115234378 .34570313 .115234378 .36914063 .115234378 .3922526 .11645508 .41503907 .118896488 .43782554 .12133789 .46110026 .12467448 .48486329 .12890625L.4975586 .00390625C.46435548-.001953125 .43408204-.0056966149 .40673829-.0073242189 .37939454-.008951823 .35514323-.009765625 .33398438-.009765625Z"/>
<path id="font_2_387" d="M.2529297-.009765625C.21354167-.009765625 .17862956-.008544922 .14819336-.0061035158 .117757167-.0036621094 .09098307 0 .067871097 .0048828127L.083496097 .13134766C.12451172 .12613933 .15901692 .12223307 .18701172 .119628909 .21500652 .11702474 .23697917 .115722659 .2529297 .115722659 .29720054 .115722659 .3292643 .11873373 .3491211 .12475586 .36897788 .130778 .37890626 .14046224 .37890626 .1538086 .37890626 .1616211 .37646485 .16780599 .37158204 .17236328 .36669923 .17692058 .35888673 .18082683 .34814454 .18408203L.1796875 .23291016C.1451823 .2430013 .11922201 .25838218 .10180664 .27905274 .08439127 .2997233 .075683597 .32747398 .075683597 .3623047 .075683597 .41796876 .099121097 .45939128 .1459961 .48657228 .1928711 .51375326 .2639974 .52734377 .359375 .52734377 .3815104 .52734377 .40454103 .52652999 .4284668 .52490237 .45239259 .5232747 .4777018 .5208333 .50439456 .5175781L.49023438 .39501954C.46061198 .3976237 .43473307 .39941407 .41259767 .40039063 .39046226 .4013672 .37174479 .40185548 .3564453 .40185548 .30533854 .40185548 .26831056 .39900718 .24536133 .39331056 .22241211 .38761393 .2109375 .37825523 .2109375 .36523438 .2109375 .35709635 .21329753 .35083009 .21801758 .34643556 .22273763 .34204103 .23014324 .3383789 .24023438 .33544923L.3852539 .29541017C.42985026 .28336589 .46313478 .26586915 .48510743 .24291992 .5070801 .2199707 .5180664 .19010417 .5180664 .15332031 .5180664 .09830729 .4962565 .057373048 .45263673 .030517579 .40901695 .0036621094 .3424479-.009765625 .2529297-.009765625Z"/>
<clipPath id="clip_3">
<path transform="matrix(2,0,0,-2,0,1440)" d="M0 720H720V0H0Z"/>
</clipPath>
</defs>
<g>
<g id="layer_1" data-name="Layer 1">
</g>
<g id="layer_1" data-name="Layer 11">
</g>
<g id="layer_1" data-name="Layer 10">
</g>
<g id="layer_1" data-name="Layer 9">
</g>
<g id="layer_1" data-name="Layer 2">
</g>
<g id="layer_1" data-name="Layer 3">
</g>
<g id="layer_1" data-name="Layer 7">
</g>
<g id="layer_1" data-name="Layer 6">
</g>
<g id="layer_1" data-name="Layer 4">
</g>
<g id="layer_1" data-name="Layer 13">
</g>
<g id="layer_1" data-name="Layer 17">
</g>
<g id="layer_1" data-name="Layer 37">
</g>
<g id="layer_1" data-name="Layer 36">
</g>
<g id="layer_1" data-name="Layer 35">
</g>
<g id="layer_1" data-name="Layer 34">
</g>
<g id="layer_1" data-name="Layer 33">
</g>
<g id="layer_1" data-name="Layer 32">
</g>
<g id="layer_1" data-name="Layer 31">
</g>
<g id="layer_1" data-name="Layer 30">
</g>
<g id="layer_1" data-name="Layer 29">
</g>
<g id="layer_1" data-name="Layer 28">
</g>
<g id="layer_1" data-name="Layer 27">
</g>
<g id="layer_1" data-name="Layer 26">
</g>
<g id="layer_1" data-name="Layer 25">
</g>
<g id="layer_1" data-name="Layer 24">
</g>
<g id="layer_1" data-name="Layer 23">
</g>
<g id="layer_1" data-name="Layer 22">
</g>
<g id="layer_1" data-name="Layer 21">
</g>
<g id="layer_1" data-name="Layer 20">
<g clip-path="url(#clip_1)">
<path transform="matrix(2,0,0,-2,1012.0472,523.693)" d="M0 0C1.075-.185 2.13-.352 3.205-.537 2.149-.389 1.075-.204 0-.019Z" fill="#fff200"/>
<path transform="matrix(2,0,0,-2,1038.9085,537.661)" d="M0 0C.056 0 .111-.019 .185-.037V-.056H.166C.093-.037 .056-.019 0 0" fill="#fff200"/>
<path transform="matrix(2,0,0,-2,1041.7984,527.6946)" d="M0 0C-.686 .056-1.352 .111-2.019 .185-3.094 .296-4.168 .426-5.243 .574-4.168 .445-3.094 .315-2.019 .204-1.352 .13-.686 .056 0 0" fill="#fff200"/>
<path transform="matrix(2,0,0,-2,1110.7465,505.6916)" d="M0 0C-.292-.205-.585-.429-.887-.644-1.189-.868-1.501-1.092-1.813-1.316-1.394-.995-.965-.682-.546-.38-.429-.293-.312-.205-.205-.127V-.107Z" fill="#fff200"/>
<path transform="matrix(2,0,0,-2,1172.6766,475.40779)" d="M0 0-223.541-299.827C-225.005-299.827-224.227-299.809-226.097-299.827L-219.873-288.008C-211.352-283.173-211.752-275.393-211.752-272.633L-211.889-272.873-91.199-44.127H-91.18C-90.031-44.015-42.959-39.254 0 0" fill="#085d30"/>
<path transform="matrix(2,0,0,-2,719.5184,1075.0623)" d="M0 0C-1.871 .019-1.093 0-2.556 0L-226.097 299.827C-183.138 260.573-136.066 255.812-134.917 255.701H-134.899L-13.727 25.991C-14.246 15.783-6.706 12.041-6.243 11.838L-6.224 11.819Z" fill="#085d30"/>
<path transform="matrix(2,0,0,-2,728.8052,451.4168)" d="M0 0C-1.394-.273-2.779-.478-4.163-.497-5.772-.497-7.371-.273-8.989 .019-10.481 .283-11.973 .585-13.523 .819-13.26-.507-12.772-1.667-12.09-2.642-11.3-3.803-10.228-4.709-8.97-5.314-7.361-5.031-5.772-4.807-4.173-4.816-2.798-4.826-1.414-5.031-.01-5.304 1.258-4.699 2.35-3.803 3.198-2.652 3.959-1.628 4.524-.4 4.855 1.004 3.198 .712 1.589 .312 0 0M45.874-126.628C43.373-115.55 36.148-108.641 26.182-104.176 14.9-99.156 2.878-98.174-9.275-97.84-21.483-97.507-33.468-96.006-43.898-88.837-52.327-83.076-52.623-75.74-48.548-65.014-45.751-57.678-38.266-55.214-29.467-57.901-23.15-59.827-17.389-58.327-11.813-55.418-9.83-54.399-8.515-52.676-10.201-50.602-13.684-46.285-17.87-42.284-23.632-42.136-34.691-41.839-45.232-44.118-54.79-50.25-70.537-60.364-70.685-85.503-60.737-95.747-52.53-104.232-42.861-109.771-31.375-111.345-19.037-113.031-6.514-113.55 5.897-114.735 13.27-115.421 20.365-117.181 26.256-121.997 34.426-128.684 33.666-138.262 24.57-143.504 21.829-145.061 18.846-146.228 16.031-147.561 20.588-150.136 24.904-152.711 29.387-155.009 30.424-155.527 32.221-155.546 33.24-155.009 43.762-149.34 48.542-138.299 45.874-126.628M12.949-30.189C14.839-30.702 20.143-32.447 20.977-32.54 24.385-32.947 27.497-32.484 30.406-31.41 30.906-31.224 31.406-31.021 31.888-30.817 33.018-30.298 34.111-29.687 35.167-29.02 36.148-28.409 37.093-27.723 38.019-26.982 38.65-26.482 39.261-25.982 39.872-25.445 37.705-24.426 35.556-23.407 33.37-22.388 33.462-21.943 33.555-21.499 33.666-21.054 36.575-21.295 39.576-21.221 42.41-21.869 46.819-22.87 50.654-22.481 54.007-20.443 54.729-19.998 55.433-19.48 56.118-18.887 57.026-18.09 57.897-17.146 58.731-16.052 55.285-14.682 51.895-13.329 48.505-11.977 48.634-11.588 48.764-11.199 48.894-10.791 49.839-10.791 50.802-10.717 51.747-10.81 54.859-11.106 57.989-11.514 61.102-11.884 63.177-12.144 65.251-12.385 67.326-12.607 69.401-12.811 71.476-12.977 73.532-13.051 75.125-13.126 76.7-13.144 78.275-13.107 83.832-12.94 89.501-10.365 94.78-8.068 98.207-6.586 98.022-4.66 94.651-2.789 85.147 2.454 75.681 7.771 66.067 12.791 63.547 14.088 61.028 15.384 58.49 16.663 56.526 17.645 54.526 18.515 52.488 19.275 51.673 19.571 50.857 19.849 50.024 20.108H50.005C49.172 20.368 48.338 20.59 47.504 20.794 46.652 20.997 45.8 21.183 44.93 21.331 44.077 21.498 43.225 21.609 42.354 21.701 40.206 21.942 38.019 21.998 35.778 21.831 29.702 21.386 25.904 18.348 25.46 12.346 25.052 6.956 25.571 1.509 25.46-3.919 25.33-10.217 23.348-15.145 19.661-18.59 19.254-18.961 18.828-19.331 18.383-19.683 17.476-20.369 16.494-20.98 15.438-21.517 14.215-22.129 12.9-22.647 11.492-23.036 10.547-23.333 9.528-23.555 8.491-23.74 8.361-23.777 8.213-23.796 8.083-23.814 1.525-24.87-.475-26.964-2.05-34.67M-6.588-35.041C-8.385-28.186-10.868-24-18.315-23.444-26.466-22.814-32.042-17.553-33.487-9.328-34.358-4.289-34.302 .972-34.154 6.103-33.746 18.737-37.785 22.739-50.437 21.757-51.345 21.683-52.271 21.535-53.179 21.331-72.149 16.829-88.377 6.641-104.678-3.418-106.92-4.808-106.309-6.586-104.604-7.457-100.862-9.402-97.046-11.44-93.008-12.44-83.504-14.774-74.001-13.181-64.572-11.384-62.367-10.977-60.107-10.828-57.866-10.551-57.736-11.014-57.606-11.477-57.495-11.94-60.867-13.311-64.238-14.7-67.721-16.127-61.33-22.647-59.755-23.111-51.271-21.74-48.399-21.295-45.473-21.258-42.583-21.036-42.49-21.48-42.379-21.943-42.286-22.388-44.472-23.407-46.621-24.444-48.659-25.389M13.826-152.359C6.879-150.451-.605-150.266-7.867-149.822-16.462-149.266-24.799-147.988-32.394-143.727-42.008-138.336-42.62-128.147-33.746-121.497-31.949-120.144-29.986-119.033-28.152-117.847-33.487-116.143-38.489-114.383-43.602-113.049-44.898-112.697-47.14-113.235-47.936-114.198-54.216-121.756-56.143-130.574-53.679-139.985-51.086-149.951-43.249-155.027-34.302-158.565-23.076-163.011-11.257-163.549 .636-163.363 6.49-163.271 12.048-164.475 16.883-167.902 21.792-171.385 23.57-176.461 23.033-182.222 22.57-186.964 18.68-188.872 14.845-190.614 14.159-190.929 13.474-191.243 12.418-191.725 14.937-193.096 17.123-194.282 19.31-195.486 25.478-198.894 27.497-198.468 31.573-192.485 32.685-190.854 33.685-189.039 34.203-187.168 37.835-174.293 32.351-157.491 13.826-152.359M-111.644-7.16C-140.524-16.367-170.09-22.221-200.286-26.834-197.618-29.705-194.951-32.354-191.783-33.985-181.779-39.172-170.905-38.838-160.179-37.782-141.432-35.948-123.426-30.817-105.716-24.593-100.288-22.684-94.953-20.573-89.562-18.553-97.991-16.404-107.013-16.46-111.644-7.16M41.447-47.415C37.001-45.433 32.203-44.081 27.442-43.006 18.346-40.987 9.695-41.321 3.007-49.249 .432-52.287 .451-53.844 4.082-55.677 9.787-58.567 15.716-59.809 22.162-57.678 24.941-56.771 28.405-56.178 31.054-57.03 37.316-59.03 40.909-63.81 42.132-70.405 43.429-77.389 43.151-84.021 36.538-88.115 31.073-91.486 25.015-93.913 19.55-96.599 24.96-99.193 31.128-102.249 37.39-105.121 38.316-105.565 39.872-105.639 40.706-105.158 48.042-100.841 54.822-95.673 57.545-87.281 62.621-71.702 57.971-54.807 41.447-47.415M10.658-196.245C5.342-194.244-.772-194.393-6.477-193.355-11.238-192.485-16.036-191.707-20.723-190.577-21.52-190.41-22.298-190.206-23.076-189.984-23.854-189.78-24.632-189.576-25.392-189.335-25.577-189.28-25.762-189.206-25.947-189.132-26.04-189.095-26.132-189.057-26.207-189.02-26.355-188.983-26.503-188.909-26.651-188.835-26.688-188.817-26.725-188.798-26.762-188.78-27.04-188.631-27.318-188.502-27.559-188.335-27.8-188.187-28.022-188.039-28.226-187.872-28.318-187.798-28.411-187.724-28.485-187.65-28.671-187.501-28.837-187.335-28.985-187.168-29.208-186.946-29.393-186.705-29.578-186.464-29.689-186.334-29.782-186.205-29.874-186.056-30.023-185.816-30.171-185.556-30.301-185.315-30.319-185.278-30.338-185.241-30.356-185.204-30.486-184.926-30.597-184.649-30.708-184.371-30.782-184.148-30.856-183.926-30.931-183.685-30.949-183.611-30.968-183.556-30.968-183.5-31.06-183.092-31.153-182.648-31.208-182.185-31.301-181.351-31.301-180.48-31.227-179.554-31.208-179.35-31.19-179.128-31.171-178.906-31.153-178.702-31.134-178.48-31.097-178.276-31.023-177.85-30.949-177.442-30.875-177.035-30.782-176.646-30.689-176.238-30.578-175.849-30.467-175.46-30.338-175.09-30.208-174.719-30.078-174.386-29.949-174.052-29.8-173.737-29.171-172.329-28.318-171.033-27.244-169.866-27.096-169.68-26.929-169.514-26.762-169.365-26.503-169.069-26.207-168.791-25.892-168.513-25.521-168.198-25.132-167.883-24.724-167.587-24.298-167.272-23.835-166.957-23.372-166.661-23.891-166.475-24.391-166.29-24.891-166.086-25.392-165.901-25.892-165.716-26.373-165.549-27.374-165.179-28.337-164.827-29.3-164.475-31.208-163.789-33.098-163.122-34.987-162.53-35.858-162.27-37.47-162.548-37.988-163.197-44.343-171.051-47.288-188.872-35.08-197.06-31.523-199.45-27.337-201.543-23.168-202.266-20.538-202.729-17.87-202.97-15.184-203.136-12.517-203.322-9.83-203.433-7.144-203.618-5.366-203.729-3.569-203.915-1.809-204.155 2.526-204.748 7.25-205.73 10.843-208.046 11.214-208.286 11.566-208.546 11.9-208.805 12.066-208.935 12.233-209.064 12.381-209.194 12.548-209.324 12.715-209.472 12.863-209.62 13.066-209.824 13.27-210.009 13.455-210.213 13.826-210.602 14.178-211.01 14.474-211.436 14.66-211.695 14.845-211.973 15.012-212.251 15.345-212.788 15.642-213.362 15.882-213.937 15.993-214.233 16.105-214.511 16.197-214.807 16.29-215.104 16.382-215.419 16.457-215.715 16.512-215.937 16.568-216.178 16.605-216.4 16.697-216.938 16.734-217.493 16.753-218.031 16.771-218.271 16.753-218.494 16.753-218.735 16.753-219.216 16.734-219.698 16.66-220.198 16.568-220.791 16.438-221.384 16.271-221.976 16.179-222.273 16.086-222.551 15.975-222.847 15.697-223.57 15.363-224.255 14.974-224.94 14.623-225.515 14.234-226.07 13.789-226.608 13.585-226.867 13.363-227.126 13.122-227.367 12.9-227.608 12.659-227.867 12.4-228.108 11.992-228.479 11.547-228.849 11.084-229.201 10.732-229.461 10.362-229.701 9.991-229.942 8.398-230.998 6.694-231.906 5.008-232.943 7.25-233.869 9.584-234.536 11.603-235.722 12.122-236.018 12.622-236.241 13.103-236.389 13.326-236.463 13.567-236.519 13.807-236.556 14.326-236.648 14.826-236.63 15.308-236.537 15.808-236.444 16.29-236.259 16.771-236 17.012-235.852 17.253-235.703 17.476-235.537 17.79-235.314 18.105-235.037 18.402-234.74 19.717-233.443 21.088-232.128 22.162-230.628 30.498-218.92 24.997-201.617 10.658-196.245M-71.278-19.85C-74.279-17.405-77.576-16.423-81.263-18.201-107.642-31.002-135.652-38.375-164.885-43.247-146.304-57.141-82.875-45.155-65.554-24.759-67.462-23.111-69.333-21.425-71.278-19.85M155.061-43.118C155.116-43.136 155.153-43.155 155.227-43.173H155.246V-43.155C155.172-43.136 155.116-43.118 155.061-43.118M-49.659-30.298C-54.698-27.26-59.292-27.001-64.905-30.206-74.316-35.615-84.208-40.357-94.286-44.433-103.271-48.064-112.792-50.416-122.462-53.473-119.943-54.492-117.591-55.696-115.089-56.4-107.105-58.66-99.028-58.438-90.988-56.807-73.538-53.325-59.051-43.432-42.879-34.763-45.713-32.892-47.64-31.521-49.659-30.298M113.49-53.64H113.472C110.638-52.084 108.174-51.621 105.728-51.046 87.444-46.674 70.624-38.875 54.359-29.687 52.099-28.427 48.857-27.408 46.578-28.057H46.56C45.522-28.353 44.485-28.742 43.484-29.168 42.466-29.613 41.484-30.094 40.483-30.613 38.52-31.632 36.575-32.762 34.593-33.744 34.593-33.892 34.593-34.059 34.611-34.225 34.63-34.707 34.667-35.189 34.704-35.671 45.93-41.358 57.045-47.341 68.456-52.639 79.164-57.604 90.612-59.216 102.32-57.178 102.913-57.067 103.506-56.937 104.098-56.789 105.858-56.363 107.599-55.752 109.341-55.122 110.23-54.788 111.138-54.473 112.046-54.158 112.527-53.992 113.009-53.825 113.509-53.658 113.509-53.658 113.49-53.658 113.49-53.64M16.92-248.745C16.864-248.541 16.808-248.337 16.734-248.134 16.512-247.43 16.253-246.726 15.938-246.059 15.753-245.67 15.567-245.299 15.345-244.929 15.141-244.558 14.919-244.188 14.678-243.817 14.197-243.113 13.678-242.428 13.085-241.78 12.844-241.52 12.585-241.261 12.326-241.002 12.177-240.872 12.029-240.724 11.862-240.594 11.418-240.168 10.918-239.779 10.417-239.427 10.139-239.223 9.862-239.038 9.565-238.871 9.528-238.834 9.473-238.797 9.417-238.779 9.139-238.612 8.861-238.445 8.583-238.297 8.472-238.223 8.361-238.167 8.25-238.13 7.991-237.982 7.731-237.852 7.453-237.741 7.083-237.574 6.712-237.426 6.342-237.278 .951-235.259-5.033-234.888-10.664-233.406-11.09-233.295-11.516-233.165-11.924-233.036-12.239-232.943-12.535-232.851-12.832-232.758-15.295-231.943-17.37-230.924-19.074-229.72-19.778-229.22-20.445-228.682-21.019-228.09-21.316-227.812-21.594-227.515-21.853-227.201-22.372-226.608-22.816-225.959-23.168-225.311-23.521-224.663-23.817-223.959-24.039-223.255-24.15-222.921-24.224-222.588-24.298-222.236-24.317-222.217-24.317-222.18-24.317-222.143-24.373-221.921-24.41-221.68-24.428-221.439-24.447-221.421-24.447-221.421-24.428-221.402-24.465-221.235-24.484-221.05-24.484-220.883-24.539-220.55-24.539-220.198-24.539-219.865-24.539-219.42-24.521-218.975-24.465-218.531-24.428-218.123-24.373-217.716-24.28-217.29V-217.271C-24.28-217.197-24.261-217.123-24.224-217.03-24.224-216.975-24.206-216.901-24.187-216.826-24.113-216.456-24.021-216.086-23.909-215.715-23.761-215.233-23.613-214.752-23.409-214.251-23.279-213.899-23.132-213.529-22.946-213.14-22.446-211.991-21.798-210.806-21.038-209.602-20.723-209.102-20.39-208.583-20.019-208.064-22.427-207.193-24.799-206.471-27.096-205.471-29.171-204.563-30.226-205.378-31.264-207.119-36.34-215.641-35.191-226.163-28.152-233.184-22.113-239.186-14.499-241.539-6.218-242.372-2.68-242.724 .969-243.15 4.267-244.373 9.991-246.504 12.696-252.024 10.232-257.619 8.583-261.342 5.175-264.287 2.618-267.511 4.527-268.771 5.823-269.456 7.046-269.456 7.435-269.456 7.805-269.4 8.176-269.252 8.306-269.215 8.472-269.141 8.621-269.067 8.75-269.011 8.898-268.937 9.028-268.845 9.176-268.752 9.343-268.659 9.491-268.548 9.806-268.344 10.139-268.085 10.492-267.77 10.658-267.622 10.843-267.455 11.029-267.289 11.399-266.974 11.807-266.585 12.233-266.14 12.455-265.918 12.677-265.695 12.9-265.455 13.178-265.158 13.437-264.862 13.678-264.547 13.882-264.287 14.085-264.028 14.271-263.75 14.474-263.472 14.66-263.195 14.845-262.898 15.549-261.768 16.142-260.564 16.568-259.341 16.771-258.804 16.92-258.248 17.068-257.693 17.197-257.137 17.29-256.581 17.383-256.025 17.438-255.636 17.476-255.266 17.512-254.877 17.549-254.414 17.568-253.951 17.568-253.487 17.568-251.876 17.364-250.283 16.92-248.745M-4.032-51.621C-4.384-51.583-4.754-51.528-5.125-51.472-6.441-55.677-8.589-59.827-8.886-64.106-9.46-72.535-8.886-81.038-9.052-89.523-9.127-93.024-7.293-93.302-4.569-93.265-1.791-93.246 .321-93.246 .21-89.393-.012-82.113-.272-74.777 .432-67.552 1.044-61.346-2.105-56.789-4.032-51.621M-.031-128.703C-.031-126.313-.105-123.924-.012-121.534 .136-117.792-2.569-118.607-4.718-118.496-6.996-118.385-8.96-118.44-8.904-121.682-8.756-128.592-8.756-135.502-8.867-142.412-8.923-145.468-7.237-145.857-4.792-145.82-2.513-145.783-.549-145.82-.512-142.615-.457-137.984-.123-133.353 .099-128.703ZM-.809-178.998C-.809-176.09-.92-173.163-.79-170.236-.623-167.254-2.457-167.179-4.643-167.161-6.774-167.161-8.274-167.513-8.2-170.162-8.07-176.016-8.033-181.851-8.089-187.687-8.108-190.317-6.625-190.706-4.495-190.688-2.42-190.688-.772-190.41-.827-187.761-.902-184.834-.846-181.907-.846-178.998ZM-4.291-10.903C-8.33-10.94-10.071-12.107-9.478-16.034-8.793-20.61-6.94-24.982-5.588-29.446-5.07-29.428-4.551-29.391-4.032-29.353-1.865-25.093 1.266-21.295 .877-15.904 .618-12.329-.864-10.884-4.291-10.903M-5.162-206.508C-6.181-206.767-7.644-208.101-7.663-208.972-7.737-215.067-7.441-221.161-7.367-227.256-7.33-229.312-6.755-230.479-4.403-230.461-1.957-230.424-1.587-229.071-1.624-227.108-1.661-224.311-1.624-221.532-1.624-218.753H-1.55C-1.55-215.437-1.531-212.14-1.55-208.824-1.55-206.193-3.513-206.1-5.162-206.508M-2.439-246.003C-4.773-246.04-7.163-245.151-7.107-248.412-7.033-253.024-6.867-257.637-6.459-262.213-6.385-263.12-5.051-263.935-4.31-264.788-3.68-263.935-2.55-263.12-2.532-262.25-2.346-257.007-2.439-251.746-2.439-246.003" fill="#fff200"/>
<path transform="matrix(2,0,0,-2,760.8482,746.5612)" d="M0 0C2.827 1.335 5.801 2.5 8.539 4.076 17.641 9.314 18.388 18.882 10.224 25.564 4.336 30.383-2.753 32.145-10.124 32.84-22.55 34.011-35.056 34.541-47.406 36.23-58.9 37.802-68.558 43.34-76.774 51.812-86.722 62.069-86.575 87.197-70.818 97.316-61.267 103.45-50.727 105.722-39.664 105.427-33.901 105.274-29.713 101.282-26.221 96.972-24.536 94.892-25.854 93.174-27.847 92.142-33.421 89.254-39.175 87.748-45.496 89.674-54.289 92.353-61.77 89.882-64.572 82.546-68.663 71.835-68.345 64.504-59.918 58.721-49.491 51.566-37.515 50.053-25.316 49.724-13.154 49.396-1.134 48.416 10.144 43.387 20.119 38.939 27.337 32.024 29.852 20.942 32.5 9.267 27.728-1.772 17.217-7.43 16.197-7.978 14.396-7.966 13.356-7.435 8.883-5.149 4.558-2.572 0 0" fill="#fff200"/>
<path transform="matrix(2,0,0,-2,724.7052,520.7872)" d="M0 0C1.562 7.72 3.56 9.806 10.132 10.874 21.177 12.669 27.261 19.553 27.5 30.768 27.615 36.186 27.085 41.638 27.496 47.025 27.954 53.03 31.738 56.076 37.82 56.515 45.933 57.1 53.516 54.852 60.532 51.343 72.766 45.223 84.703 38.506 96.685 31.894 100.067 30.028 100.253 28.102 96.822 26.612 91.546 24.322 85.877 21.732 80.313 21.583 71.501 21.345 62.639 23.029 53.795 23.874 52.847 23.964 51.883 23.886 50.926 23.886 50.8 23.491 50.674 23.095 50.548 22.7 53.938 21.351 57.329 20.001 60.777 18.629 56.44 12.949 51.085 11.31 44.457 12.815 41.623 13.458 38.625 13.38 35.701 13.63 35.601 13.186 35.501 12.742 35.401 12.299 37.569 11.276 39.737 10.253 41.909 9.228 35.817 3.909 23.262 4.06 14.607 6.058" fill="#fff200"/>
<path transform="matrix(2,0,0,-2,674.558,514.1626)" d="M0 0C-8.414-2.243-15.488-.074-21.543 5.972-19.514 6.932-17.347 7.958-15.179 8.984-15.275 9.433-15.371 9.881-15.467 10.33-18.364 10.106-21.292 10.079-24.151 9.622-32.651 8.261-34.222 8.715-40.6 15.239-37.118 16.667-33.744 18.05-30.37 19.434-30.498 19.895-30.626 20.356-30.755 20.817-32.987 20.545-35.243 20.399-37.447 19.979-46.887 18.179-56.392 16.587-65.895 18.93-69.931 19.925-73.755 21.973-77.487 23.904-79.197 24.789-79.81 26.553-77.56 27.941-61.266 37.999-45.038 48.194-26.065 52.695-25.164 52.909-24.238 53.058-23.315 53.13-10.669 54.112-6.639 50.101-7.035 37.476-7.196 32.337-7.245 27.079-6.363 22.047-4.918 13.811 .657 8.548 8.8 7.932 16.249 7.369 18.738 3.185 20.517-3.68 16.644-2.171 9.808 1.927 6.572 3.454" fill="#fff200"/>
<path transform="matrix(2,0,0,-2,753.6142,834.8854)" d="M0 0C1.058 .483 1.746 .799 2.435 1.112 6.266 2.85 10.153 4.756 10.609 9.514 11.161 15.273 9.384 20.353 4.478 23.828-.357 27.253-5.927 28.464-11.772 28.37-23.675 28.179-35.493 28.713-46.72 33.162-55.658 36.705-63.503 41.776-66.1 51.746-68.553 61.161-66.635 69.973-60.348 77.531-59.547 78.494-57.314 79.028-56.026 78.691-50.908 77.353-45.902 75.59-40.556 73.89-42.392 72.7-44.364 71.578-46.166 70.228-55.032 63.591-54.426 53.39-44.815 48.004-37.209 43.741-28.873 42.459-20.274 41.917-13.008 41.46-5.527 41.281 1.411 39.365 19.942 34.247 25.425 17.429 21.798 4.565 21.27 2.689 20.26 .874 19.154-.753 15.087-6.729 13.059-7.169 6.887-3.755 4.709-2.55 2.517-1.371 0 0" fill="#fff200"/>
<path transform="matrix(2,0,0,-2,505.4932,465.75483)" d="M0 0C4.63-9.296 13.651-9.237 22.084-11.39 16.702-13.409 11.355-15.525 5.933-17.431-11.773-23.656-29.782-28.786-48.526-30.621-59.269-31.673-70.143-32-80.135-26.822-83.307-25.178-85.963-22.542-88.64-19.674-58.44-15.05-28.887-9.21 0 0" fill="#fff200"/>
<path transform="matrix(2,0,0,-2,1113.1259,503.9756)" d="M0 0C-.371-.263-.78-.556-1.19-.858L-1.394-.965V-.985C-1.502-1.063-1.619-1.15-1.736-1.238-2.155-1.54-2.584-1.852-3.003-2.174-3.305-2.408-3.637-2.632-3.949-2.876-4.261-3.1-4.592-3.334-4.914-3.578-5.304-3.861-5.694-4.153-6.084-4.426-6.464-4.729-6.874-5.002-7.264-5.284-7.693-5.596-8.122-5.899-8.541-6.152-8.931-6.435-9.321-6.669-9.692-6.913-10.121-7.176-10.52-7.429-10.91-7.654-11.651-8.083-12.392-8.473-13.133-8.824-13.787-9.116-14.43-9.418-15.083-9.652-15.561-9.857-16.068-10.023-16.546-10.189-16.751-10.267-16.955-10.345-17.16-10.393-17.511-10.51-17.862-10.618-18.213-10.715-18.662-10.842-19.12-10.949-19.588-11.066-20.992-11.398-22.396-11.641-23.829-11.807-27.719-12.285-31.678-12.197-35.665-11.856-36.348-11.807-37.011-11.729-37.684-11.651-38.756-11.544-39.829-11.417-40.911-11.281-41.983-11.154-43.056-11.008-44.129-10.861-45.201-10.725-46.264-10.579-47.336-10.393-48.409-10.208-49.462-10.042-50.544-9.857-51.831-9.633-53.118-9.399-54.395-9.175-55.692-8.911-56.969-8.677-58.247-8.414-64.633-7.098-70.97-5.509-77.23-3.724-78.497-3.373-79.736-3.003-80.993-2.632-83.46-1.891-85.927-1.131-88.364-.351-89.866 .127-91.367 .624-92.849 1.131-94.351 1.628-95.833 2.145-97.334 2.662-98.592 3.11-99.869 3.549-101.127 3.998-104.335 5.148-107.504 6.318-110.692 7.517-110.76 7.556-110.838 7.595-110.936 7.683-110.945 7.722-111.004 7.761-111.043 7.8-111.189 7.946-111.394 8.171-111.725 8.483-102.95 9.76-94.205 9.984-89.495 19.081-86.999 18.281-84.474 17.521-81.958 16.799-80.515 16.351-79.082 15.951-77.659 15.542-74.081 14.518-70.493 13.543-66.895 12.617-65.618 12.295-64.34 11.963-63.083 11.651-61.825 11.33-60.577 11.018-59.319 10.725-57.486 10.277-55.672 9.848-53.84 9.448-53.781 9.428-53.723 9.409-53.674 9.409-51.704 8.941-49.725 8.502-47.746 8.093-45.737 7.644-43.719 7.225-41.72 6.835-40.092 6.484-38.444 6.162-36.777 5.85-33.482 5.207-30.167 4.592-26.842 4.037-25.194 3.734-23.527 3.461-21.86 3.198-18.545 2.642-15.19 2.126-11.856 1.648-8.522 1.16-5.187 .702-1.833 .273-1.151 .166-.878 .127 0 0" fill="#fff200"/>
<path transform="matrix(2,0,0,-2,1109.6546,506.45204)" d="M0 0C-.117-.078-.234-.176-.341-.263-.644-.488-.956-.712-1.267-.936-.848-.614-.419-.302 0 0" fill="#fff200"/>
<path transform="matrix(2,0,0,-2,1110.7465,505.6916)" d="M0 0C-.292-.205-.585-.429-.887-.644-1.189-.868-1.501-1.092-1.813-1.316-1.394-.995-.965-.682-.546-.38-.429-.293-.312-.205-.205-.127V-.107Z" fill="#fff200"/>
<path transform="matrix(2,0,0,-2,767.8826,644.6062)" d="M0 0C5.467 2.682 11.527 5.099 16.99 8.479 23.605 12.57 23.884 19.206 22.59 26.185 21.366 32.786 17.767 37.56 11.497 39.56 8.852 40.404 5.387 39.817 2.615 38.906-3.843 36.785-9.755 38.023-15.471 40.92-19.096 42.758-19.108 44.296-16.533 47.348-9.853 55.263-1.203 55.612 7.894 53.578 12.66 52.513 17.46 51.161 21.902 49.173 38.423 41.78 43.082 24.882 38.004 9.306 35.272 .922 28.499-4.263 21.148-8.569 20.318-9.055 18.774-8.966 17.842-8.536 11.584-5.654 5.403-2.607 0 0" fill="#fff200"/>
<path transform="matrix(2,0,0,-2,682.0898,784.7288)" d="M0 0C-4.967-3.103-7.429-7.333-7.89-12.908-8.285-17.7-6.296-21.364-2.038-22.674 4.099-24.563 10.533-25.536 16.878-26.698 22.583-27.743 28.686-27.594 34.005-29.588 48.338-34.961 53.845-52.265 45.507-63.985 44.44-65.485 43.074-66.79 41.75-68.087 39.753-70.044 37.629-70.649 34.945-69.064 32.932-67.876 30.607-67.215 28.358-66.294 30.435-65.022 32.546-63.935 34.429-62.54 41.997-56.936 42.15-46.52 34.188-41.391 30.603-39.082 25.879-38.101 21.536-37.496 14.467-36.51 7.197-36.833 .185-35.613-3.983-34.888-8.173-32.793-11.739-30.401-23.941-22.213-20.987-4.401-14.645 3.455-14.128 4.097-12.513 4.388-11.635 4.115-7.846 2.94-4.141 1.494 0 0" fill="#fff200"/>
<path transform="matrix(2,0,0,-2,399.0168,537.9154)" d="M0 0C29.227 4.868 57.238 12.244 83.628 25.038 87.315 26.825 90.612 25.837 93.608 23.404 95.56 21.818 97.432 20.133 99.341 18.492 82.005-1.904 18.588-13.889 0 0" fill="#fff200"/>
<path transform="matrix(2,0,0,-2,1039.2415,537.772)" d="M0 0C-.889-.426-1.778-.815-2.686-1.167-3.131-1.352-3.575-1.538-4.02-1.704-4.464-1.89-4.909-2.038-5.354-2.204-5.798-2.371-6.243-2.519-6.687-2.668-7.132-2.816-7.576-2.964-8.021-3.094-8.91-3.39-9.799-3.631-10.688-3.872-11.337-4.038-11.985-4.205-12.652-4.353-13.93-4.65-15.19-4.909-16.469-5.131-17.747-5.335-19.006-5.521-20.303-5.669-21.73-5.854-23.156-5.984-24.582-6.076-27.028-6.243-29.436-6.28-31.826-6.224-32.492-6.206-33.141-6.169-33.808-6.15H-33.9C-34.475-6.132-35.031-6.095-35.605-6.039-35.661-6.039-35.716-6.039-35.79-6.021-36.29-5.984-36.809-5.947-37.309-5.891-37.513-5.891-37.717-5.872-37.92-5.835-38.513-5.78-39.106-5.724-39.699-5.65-41.662-5.428-43.607-5.113-45.534-4.761-46.572-4.557-47.591-4.353-48.609-4.131-49.498-3.927-50.388-3.724-51.277-3.501-51.443-3.464-51.61-3.427-51.777-3.372-52.629-3.168-53.481-2.946-54.315-2.686-54.63-2.612-54.945-2.538-55.26-2.427-55.982-2.223-56.705-2.019-57.427-1.778-58.52-1.464-59.613-1.093-60.687-.723-61.41-.482-62.114-.241-62.837 .019-62.892 .037-62.966 .056-63.022 .093-63.744 .333-64.448 .593-65.152 .871-65.986 1.186-66.819 1.501-67.634 1.834-71.229 3.242-74.785 4.798-78.323 6.428-85.4 9.707-92.143 13.69-99.553 17.636-86.715 28.806-87.845 26.806-75.823 21.582-74.6 21.044-73.377 20.526-72.136 20.026-70.913 19.507-69.672 19.007-68.45 18.525-67.857 18.266-67.245 18.025-66.653 17.802-64.911 17.099-63.17 16.45-61.41 15.802-59.872 15.228-58.335 14.672-56.779 14.135-56.223 13.931-55.667 13.727-55.093 13.542-53.703 13.06-52.314 12.597-50.925 12.152-50.87 12.115-50.832 12.097-50.777 12.097-49.017 11.504-47.257 10.948-45.497 10.43-43.849 9.911-42.181 9.411-40.532 8.948-39.865 8.744-39.199 8.559-38.55 8.392-37.68 8.133-36.809 7.892-35.938 7.669-35.16 7.447-34.401 7.243-33.623 7.058-32.567 6.762-31.511 6.502-30.455 6.243-29.399 5.965-28.343 5.706-27.287 5.465-26.009 5.15-24.731 4.854-23.452 4.576-20.896 3.983-18.321 3.446-15.746 2.927-14.468 2.668-13.19 2.427-11.911 2.186-10.855 1.982-9.799 1.797-8.743 1.612-6.41 1.186-4.057 .797-1.704 .426-1.611 .408-1.519 .389-1.426 .371-1.352 .333-1.278 .315-1.185 .296-.981 .259-.704 .185-.333 .093-.278 .074-.222 .056-.166 .056-.111 .037-.074 .019 0 0" fill="#fff200"/>
<path transform="matrix(2,0,0,-2,998.6348,549.1094)" d="M0 0C1.297 .148 2.557 .333 3.835 .537 2.557 .315 1.26 .13-.018-.037-1.426-.204-2.853-.333-4.279-.426-6.724-.593-9.133-.63-11.522-.556-9.133-.611-6.724-.574-4.279-.408-2.853-.315-1.426-.185 0 0" fill="#fff200"/>
<path transform="matrix(2,0,0,-2,643.0244,520.9416)" d="M0 0C-16.175-8.667-30.666-18.557-48.108-22.06-56.137-23.673-64.234-23.899-72.207-21.642-74.71-20.933-77.072-19.728-79.582-18.716-69.91-15.668-60.396-13.302-51.399-9.664-41.325-5.591-31.437-.856-22.017 4.545-16.422 7.754-11.827 7.49-6.785 4.46-4.76 3.243-2.83 1.869 0 0" fill="#fff200"/>
<path transform="matrix(2,0,0,-2,797.953,518.8984)" d="M0 0C3.975 1.965 7.792 4.48 11.987 5.674 14.267 6.323 17.521 5.31 19.768 4.044 36.048-5.133 52.87-12.934 71.138-17.303 73.586-17.889 76.066-18.343 78.913-19.912 75.194-21.115 71.554-22.772 67.741-23.438 56.029-25.481 44.584-23.874 33.875-18.902 22.456-13.599 11.353-7.618 .112-1.934 .075-1.289 .037-.645 0 0" fill="#fff200"/>
<path transform="matrix(2,0,0,-2,688.7736,867.5428)" d="M0 0C-8.483-11.948-4.924-21.566 9.346-25.348 14.966-26.838 20.953-27.207 26.352-29.215 38.418-33.703 41.351-49.069 32.249-58.073 28.074-62.203 26.896-62.291 22.618-59.452 25.189-56.22 28.599-53.277 30.238-49.557 32.704-43.96 29.996-38.453 24.269-36.323 20.98-35.1 17.327-34.675 13.795-34.318 5.506-33.48-2.107-31.125-8.142-25.117-15.185-18.105-16.331-7.581-11.249 .936-10.212 2.673-9.165 3.488-7.086 2.586-4.8 1.595-2.402 .863 0 0" fill="#fff200"/>
<path transform="matrix(2,0,0,-2,720.1604,437.65779)" d="M0 0C-12.121-.049-20.665 8.381-20.743 20.466-20.824 32.778-12.132 41.511 .168 41.476 11.606 41.444 21.074 31.969 21.007 20.623 20.939 9.147 11.669 .047 0 0" fill="#fff200"/>
<path transform="matrix(2,0,0,-2,720.1604,437.65779)" stroke-width="1" stroke-linecap="butt" stroke-miterlimit="10" stroke-linejoin="miter" fill="none" stroke="#000000" d="M0 0C-12.121-.049-20.665 8.381-20.743 20.466-20.824 32.778-12.132 41.511 .168 41.476 11.606 41.444 21.074 31.969 21.007 20.623 20.939 9.147 11.669 .047 0 0Z"/>
<path transform="matrix(2,0,0,-2,741.1218,1019.258)" d="M0 0V-.015C0-.193 0-.37-.015-.548-.015-.756-.03-.963-.044-1.171-.059-1.186-.059-1.215-.059-1.245-.074-1.423-.089-1.6-.118-1.793-.118-1.823-.118-1.852-.133-1.882-.178-2.267-.252-2.653-.326-3.038-.341-3.068-.341-3.082-.341-3.097-.415-3.438-.504-3.779-.608-4.12-.741-4.594-.919-5.083-1.111-5.572-1.111-5.572-1.111-5.587-1.126-5.602-1.897-7.291-2.934-8.551-3.838-9.411-3.868-9.44-3.898-9.47-3.927-9.5-4.372-9.87-4.831-10.241-5.32-10.596-5.35-10.626-5.38-10.656-5.424-10.685-5.498-10.73-5.587-10.789-5.676-10.833-5.72-10.878-5.75-10.893-5.75-10.893-6.061-11.13-6.372-11.352-6.684-11.56-5.884-10.863-5.202-10.107-4.654-9.322-4.016-8.433-3.527-7.499-3.157-6.506V-6.491C-2.549-4.831-2.327-3.038-2.401-1.111-2.437-.193-5.2 6.423-6.699 7.366-7.232 7.692-7.78 7.988-8.358 8.255-10.077 9.04-11.93 9.589-13.679 10.33-16.599 11.574-19.755 12.464-22.334 14.183-27.61 17.71-29.566 24.69-27.461 30.618-27.18 31.389-26.943 32.026-26.691 32.515-26.587 32.723-26.483 32.9-26.379 33.063-25.802 33.938-25.15 34.205-24.038 34.042-23.415 33.923-22.63 33.686-21.637 33.315-21.489 33.271-21.341 33.212-21.192 33.152-21.044 33.093-20.881 33.019-20.718 32.96-20.555 32.886-20.392 32.812-20.2 32.737-20.022 32.649-19.829 32.56-19.622 32.471-19.681 32.397-19.74 32.337-19.785 32.263-20.007 31.996-20.215 31.715-20.422 31.448-25.135 25.105-23.49 18.999-16.154 15.457-13.961 14.405-11.574 13.768-9.307 12.849-7.469 12.093-5.869 11.1-4.535 9.915-4.268 9.678-4.016 9.426-3.764 9.174-1.334 6.654 0 3.453 0 0" fill="#fff200"/>
<path transform="matrix(2,0,0,-2,719.8382,546.149)" d="M0 0C2.215-5.936 6.324-12.34 5.623-19.471 4.806-27.771 5.11-36.209 5.355-44.574 5.485-49.018 3.064-49.016-.129-49.042-3.264-49.068-5.364-48.768-5.286-44.723-5.098-34.982-5.766-25.2-5.1-15.503-4.762-10.587-1.726-4.343-.214 .492-.125 .289-.16 .331 0 0" fill="#fff200"/>
<path transform="matrix(2,0,0,-2,730.3244,707.8146)" d="M0 0C-.247-5.335-.63-10.668-.692-16.005-.735-19.668-2.994-19.63-5.623-19.674-8.441-19.721-10.365-19.261-10.309-15.753-10.183-7.81-10.175 .138-10.339 8.08-10.416 11.82-8.146 11.876-5.528 11.747-3.064 11.627 .047 12.555-.118 8.257-.224 5.511-.138 2.757-.138 .007-.092 .005-.046 .002 0 0" fill="#fff200"/>
<path transform="matrix(2,0,0,-2,728.1878,809.4432)" d="M0 0C0-3.356-.058-6.713 .017-10.067 .086-13.124-1.81-13.438-4.203-13.449-6.651-13.46-8.353-13.013-8.326-9.985-8.266-3.274-8.313 3.439-8.464 10.149-8.532 13.202-6.82 13.611-4.369 13.604-1.859 13.596 .247 13.502 .079 10.066-.086 6.718 .043 3.356 .043 0Z" fill="#fff200"/>
<path transform="matrix(2,0,0,-2,717.6208,510.32783)" d="M0 0C-1.35 4.462-3.201 8.848-3.899 13.41-4.501 17.345-2.737 18.511 1.285 18.54 4.724 18.564 6.19 17.127 6.454 13.551 6.854 8.15 3.011 3.021 .838-1.246 .424-.743 .336-.491 0 0" fill="#fff200"/>
<path transform="matrix(2,0,0,-2,726.4158,889.0474)" d="M0 0C0-3.199-.045-6.4 .015-9.598 .058-11.856-.377-13.423-3.189-13.449-5.897-13.474-6.555-12.129-6.589-9.769-6.688-2.764-7.017 4.24-6.928 11.241-6.915 12.241-5.229 13.786-4.066 14.076-2.174 14.549 .093 14.439 .099 11.426 .105 7.617 .1 3.809 .1 0Z" fill="#fff200"/>
<path transform="matrix(2,0,0,-2,738.5162,467.91383)" d="M0 0C-1.657 .292-3.276 .682-4.865 .995-6.269 1.267-7.654 1.472-9.028 1.482-10.627 1.492-12.217 1.267-13.825 .985-15.317 .721-16.828 .409-18.379 .175-18.115 1.511-17.628 2.671-16.945 3.656-16.156 4.807-15.103 5.704-13.845 6.318-12.226 6.025-10.627 5.801-9.019 5.801-7.634 5.821-6.25 6.025-4.855 6.299-3.588 5.684-2.496 4.787-1.657 3.646-.897 2.623-.331 1.404 0 0" fill="#fff200"/>
<path transform="matrix(2,0,0,-2,712.829,1042.3772)" d="M0 0C-.181 .153-1.018 .51-1.617 .719-1.993 .914-2.189 .984-2.495 1.165L-2.509 1.179-2.519 1.186C-2.519 1.186-2.533 1.19-2.533 1.204-2.644 1.273-2.718 1.346-2.829 1.429-3.024 1.569-3.22 1.722-3.414 1.875-3.596 2.042-3.791 2.196-3.972 2.363-4.125 2.488-4.25 2.627-4.39 2.767-4.78 3.213-5.128 3.672-5.421 4.132-5.434 4.146-5.448 4.174-5.462 4.202-6.465 6.027-7.064 7.879-7.231 9.746-7.245 9.899-7.259 10.039-7.259 10.178V10.192C-7.287 10.721-7.287 11.251-7.259 11.78-7.217 12.351-7.134 12.936-7.023 13.507V13.521C-6.939 13.884-6.855 14.246-6.744 14.608-6.646 14.942-6.535 15.263-6.41 15.597-6.27 16.015-6.089 16.419-5.894 16.837-5.727 17.171-5.56 17.519-5.365 17.854-5.239 18.063-5.128 18.258-5.003 18.439-4.877 18.606-4.752 18.759-4.627 18.885-4.417 19.094-4.209 19.261-3.986 19.372-3.888 19.414-3.791 19.456-3.679 19.484-3.428 19.539-3.192 19.539-2.955 19.456-2.662 19.386-2.37 19.205-2.091 18.954-2.662 17.129-3.359 15.416-3.93 13.73-4.181 13.034-4.39 12.351-4.571 11.655-4.78 10.874-4.933 10.08-5.016 9.286-5.058 8.952-5.072 8.618-5.072 8.297-5.072 8.06-5.058 7.838-5.044 7.615V7.573C-5.03 7.503-5.03 7.434-5.016 7.364-5.016 7.252-5.003 7.141-4.975 7.044-4.947 6.779-4.891 6.514-4.821 6.263-4.78 6.054-4.71 5.859-4.64 5.65-4.585 5.441-4.501 5.246-4.403 5.037-4.39 4.968-4.348 4.898-4.306 4.829-4.139 4.424-3.916 4.048-3.665 3.672-3.317 3.157-2.913 2.683-2.439 2.237-2.161 1.945-1.84 1.694-1.52 1.443Z" fill="#fff200"/>
<path transform="matrix(2,0,0,-2,724.8414,939.7106)" d="M0 0C0-6.884 .101-13.19-.101-19.486-.134-20.524-1.495-21.52-2.242-22.536-3.143-21.509-4.731-20.543-4.828-19.447-5.312-13.943-5.511-8.408-5.602-2.88-5.666 1.026-2.807-.023 0 0" fill="#fff200"/>
<path transform="matrix(2,0,0,-2,718.0028,1043.6265)" d="M0 0C-.496 6.24-1.221 6.795-1.522 15.356-1.556 16.34-.519 17.362 .02 18.367 .545 17.452 1.538 16.528 1.522 15.622 1.369 6.845 .819 6.203 .492 .007 .087 .001 .405 .005 0 0" fill="#fff200"/>
<path transform="matrix(2,0,0,-2,1110.7465,505.6916)" d="M0 0C-.292-.205-.585-.429-.887-.644-.78-.556-.663-.458-.546-.38-.429-.293-.312-.205-.205-.127V-.107Z" fill="#fff200"/>
</g>
<use data-text="V" xlink:href="#font_2_193" transform="matrix(38.6802,0,0,-38.6802,485.7344,1125.7714)" fill="#231f20"/>
<use data-text="i" xlink:href="#font_2_303" transform="matrix(38.6802,0,0,-38.6802,506.88475,1125.7714)" fill="#231f20"/>
<use data-text=" " xlink:href="#font_2_2013" transform="matrix(38.6802,0,0,-38.6802,529.55136,1125.7714)" fill="#231f20"/>
<use data-text="1" xlink:href="#font_2_1733" transform="matrix(38.6802,0,0,-38.6802,552.21798,1125.7714)" fill="#231f20"/>
<use data-text=" " xlink:href="#font_2_2013" transform="matrix(38.6802,0,0,-38.6802,574.8846,1125.7714)" fill="#231f20"/>
<use data-text="G" xlink:href="#font_2_66" transform="matrix(38.6802,0,0,-38.6802,597.5512,1125.7714)" fill="#231f20"/>
<use data-text="r" xlink:href="#font_2_382" transform="matrix(38.6802,0,0,-38.6802,620.33,1125.7714)" fill="#231f20"/>
<use data-text="o" xlink:href="#font_2_350" transform="matrix(38.6802,0,0,-38.6802,643.6465,1125.7714)" fill="#231f20"/>
<use data-text="u" xlink:href="#font_2_402" transform="matrix(38.6802,0,0,-38.6802,666.46786,1125.7714)" fill="#231f20"/>
<use data-text="p" xlink:href="#font_2_379" transform="matrix(38.6802,0,0,-38.6802,689.50967,1125.7714)" fill="#231f20"/>
<use data-text=" " xlink:href="#font_2_2013" transform="matrix(38.6802,0,0,-38.6802,712.1763,1125.7714)" fill="#231f20"/>
<use data-text="O" xlink:href="#font_2_120" transform="matrix(38.6802,0,0,-38.6802,734.8429,1125.7714)" fill="#231f20"/>
<use data-text="f" xlink:href="#font_2_287" transform="matrix(38.6802,0,0,-38.6802,758.05496,1125.7714)" fill="#231f20"/>
<use data-text=" " xlink:href="#font_2_2013" transform="matrix(38.6802,0,0,-38.6802,780.72158,1125.7714)" fill="#231f20"/>
<use data-text="C" xlink:href="#font_2_30" transform="matrix(38.6802,0,0,-38.6802,803.3882,1125.7714)" fill="#231f20"/>
<use data-text="o" xlink:href="#font_2_350" transform="matrix(38.6802,0,0,-38.6802,824.995,1125.7714)" fill="#231f20"/>
<use data-text="m" xlink:href="#font_2_340" transform="matrix(38.6802,0,0,-38.6802,848.265,1125.7714)" fill="#231f20"/>
<use data-text="p" xlink:href="#font_2_379" transform="matrix(38.6802,0,0,-38.6802,871.6008,1125.7714)" fill="#231f20"/>
<use data-text="a" xlink:href="#font_2_225" transform="matrix(38.6802,0,0,-38.6802,894.82449,1125.7714)" fill="#231f20"/>
<use data-text="n" xlink:href="#font_2_341" transform="matrix(38.6802,0,0,-38.6802,917.963,1125.7714)" fill="#231f20"/>
<use data-text="i" xlink:href="#font_2_303" transform="matrix(38.6802,0,0,-38.6802,939.9682,1125.7714)" fill="#231f20"/>
<use data-text="e" xlink:href="#font_2_264" transform="matrix(38.6802,0,0,-38.6802,962.3292,1125.7714)" fill="#231f20"/>
<use data-text="s" xlink:href="#font_2_387" transform="matrix(38.6802,0,0,-38.6802,984.3731,1125.7714)" fill="#231f20"/>
<g clip-path="url(#clip_3)">
<path transform="matrix(2,0,0,-2,999.0924,1117.0282)" stroke-width="1" stroke-linecap="butt" stroke-miterlimit="10" stroke-linejoin="miter" fill="none" stroke="#231f20" d="M0 0H53.408"/>
<path transform="matrix(2,0,0,-2,341.2868,1117.0282)" stroke-width="1" stroke-linecap="butt" stroke-miterlimit="10" stroke-linejoin="miter" fill="none" stroke="#231f20" d="M0 0H53.408"/>
<path transform="matrix(2,0,0,-2,547.422,1105.469)" d="M0 0C.004-.101 .001-.201-.006-.301-.137-1.927-1.775-3.327-4.025-3.859-4.146-3.889-4.269-3.914-4.393-3.936-4.814-4.016-5.252-4.066-5.703-4.081-5.917-4.089-6.13-4.089-6.339-4.081L-6.403-4.006H-6.404L-6.422-3.44-5.943-3.424C-3.755-3.264-2.06-1.997-2.112-.521-2.113-.472-2.116-.424-2.123-.375L-6.493-.528-5.907 .835-2.798 .944C-3.562 1.721-4.89 2.223-6.38 2.171L-6.587 2.163-5.973 3.674C-4.108 3.739-2.427 3.216-1.326 2.347-.844 1.969-.474 1.524-.249 1.033-.099 .706-.013 .36 0 0" fill="#085d30"/>
<path transform="matrix(2,0,0,-2,534.577,1112.35)" d="M0 0 .479 .017C.401 .011 .319 .007 .238 .004 .158 .001 .079 0 0 0" fill="#085d30"/>
<path transform="matrix(2,0,0,-2,543.177,1106.2194)" d="M0 0-4.37-.153-3.785 1.211-.675 1.319C-.295 .936-.054 .484 0 0" fill="#085d30"/>
<path transform="matrix(2,0,0,-2,562.5344,1097.456)" d="M0 0-4.613-1.51-14.143-1.843-13.53-.333Z" fill="#085d30"/>
<path transform="matrix(2,0,0,-2,554.667,1103.1326)" d="M0 0-.586-1.363-10.115-1.696-9.53-.333Z" fill="#085d30"/>
<path transform="matrix(2,0,0,-2,539.3404,1112.1836)" d="M0 0 .016-.502 .018-.566-2.363-.649-2.382-.083Z" fill="#085d30"/>
<path transform="matrix(2,0,0,-2,550.048,1125.7803)" d="M0 0-2.38-.083-7.652 6.074-7.716 6.149-5.336 6.233Z" fill="#085d30"/>
</g>
<g id="layer_1" data-name="Layer 38">
</g>
</g>
</g>
</svg>
