<svg xmlns="http://www.w3.org/2000/svg" viewBox="0 0 448 512" width="64" height="64">
  <path fill="#25D366" d="M380.9 97.1C339-19.3 211.5-35.4 129.1 47c-81.7 82.3-65.9 209.8 17.6 251.7l-11.5 42.1c-2.2 8.1 5.5 15.8 13.6 13.6l42.1-11.5c91.7 48.7 210.3-20.2 210.3-124.2 0-33.4-13-65.2-36.7-88.9zM224 400c-97 0-176-79-176-176S127 48 224 48s176 79 176 176-79 176-176 176z"/>
  <path fill="#fff" d="M331.4 278.1c-4.9-2.4-29-14.3-33.5-16-4.5-1.7-7.8-2.6-11.1 2.6s-12.7 16-15.6 19.3-5.7 3.9-10.6 1.5c-29.8-14.9-49.3-26.6-69.2-60.2-5.2-8.9 5.2-8.3 14.9-27.7 1.6-3.2.8-6-0.4-8.4s-11.1-26.7-15.2-36.6c-4-9.7-8.1-8.4-11.1-8.6-2.9-.1-6.3-.1-9.6-.1s-8.8 1.3-13.4 6.6c-4.6 5.2-17.6 17.2-17.6 42.1s18 48.9 20.5 52.3c2.5 3.4 35.4 54.1 85.7 75.8 50.3 21.7 50.3 14.6 59.4 13.7 9.1-.8 29.7-12.1 33.9-23.9 4.2-11.8 4.2-22 2.9-24.4-1.3-2.4-4.5-3.7-9.4-6.1z"/>
</svg>